<?xml version="1.0" standalone="no"?>
<!DOCTYPE svg PUBLIC "-//W3C//DTD SVG 20010904//EN"
 "http://www.w3.org/TR/2001/REC-SVG-20010904/DTD/svg10.dtd">
<svg version="1.0" xmlns="http://www.w3.org/2000/svg"
 width="300.000000pt" height="300.000000pt" viewBox="0 0 300.000000 300.000000"
 preserveAspectRatio="xMidYMid meet">
<metadata>
Created by potrace 1.10, written by Peter Selinger 2001-2011
</metadata>
<g transform="translate(0.000000,300.000000) scale(0.100000,-0.100000)"
fill="#000000" stroke="none">
<path d="M619 1805 c-4 -3 -20 -7 -36 -9 -17 -2 -48 -13 -70 -25 -40 -20 -123
-93 -124 -108 -1 -4 -11 -26 -22 -48 -24 -46 -27 -149 -6 -200 13 -31 16 -40
18 -53 0 -5 20 -29 44 -54 54 -59 134 -99 196 -100 39 0 106 7 106 12 0 1 8 3
17 5 25 5 80 40 107 69 13 14 28 23 33 20 5 -3 7 -2 6 3 -4 13 23 73 33 73 5
0 9 9 9 20 0 11 3 20 8 20 4 0 8 -43 10 -96 3 -127 5 -130 82 -127 34 1 68 8
76 14 8 7 14 31 14 60 0 32 4 49 13 50 6 0 45 3 86 5 40 2 82 9 92 15 11 5 25
7 31 3 7 -4 8 -3 4 4 -4 7 -1 12 7 12 8 0 22 9 32 20 10 11 23 17 29 13 6 -3
8 -2 3 2 -4 5 -1 18 6 29 59 90 47 229 -26 308 -48 51 -85 60 -264 60 -129 0
-167 -3 -174 -13 -8 -13 -14 -137 -10 -219 1 -33 0 -31 -20 20 -12 30 -35 73
-52 95 -29 39 -114 103 -129 97 -5 -1 -8 2 -8 6 0 4 -8 8 -17 8 -10 0 -36 4
-58 8 -22 4 -43 4 -46 1z m114 -41 c60 -20 130 -82 158 -142 35 -72 33 -170
-6 -241 -117 -213 -419 -194 -502 32 -17 46 -16 137 2 188 49 138 205 212 348
163z m592 -3 c149 -67 153 -300 6 -378 -38 -20 -59 -23 -144 -23 l-99 0 4 -65
4 -65 -63 0 -63 0 0 275 0 275 158 0 c131 0 164 -4 197 -19z"/>
<path d="M575 1631 c-52 -31 -68 -58 -72 -114 -5 -61 18 -105 69 -137 70 -43
166 -11 200 67 23 51 19 87 -12 138 -38 61 -126 83 -185 46z m111 -11 c32 -12
74 -68 75 -103 3 -67 -47 -131 -101 -129 -54 1 -90 13 -90 28 0 9 -4 13 -9 9
-15 -9 -31 30 -33 77 -3 52 22 94 66 113 39 17 55 18 92 5z"/>
<path d="M1090 1570 l0 -80 90 0 c79 0 92 3 110 22 24 26 26 68 5 108 l-16 30
-94 0 -95 0 0 -80z m178 48 c16 -16 16 -80 0 -96 -7 -7 -40 -12 -80 -12 l-68
0 0 60 0 60 68 0 c40 0 73 -5 80 -12z"/>
<path d="M1735 1794 c-27 -8 -56 -15 -62 -16 -7 -1 -13 -5 -13 -10 0 -4 -7 -8
-15 -8 -24 0 -95 -77 -119 -130 -26 -57 -32 -140 -15 -202 7 -24 13 -46 13
-51 1 -4 14 -23 29 -42 15 -19 25 -40 21 -47 -4 -6 -3 -8 3 -5 6 4 22 -2 36
-13 14 -11 29 -20 35 -20 5 0 20 -8 33 -18 13 -11 31 -19 39 -20 8 -1 35 -3
60 -5 60 -5 136 16 186 52 27 19 46 26 53 20 7 -6 8 -5 2 2 -6 8 0 29 19 63
15 28 26 58 23 66 -4 12 -3 12 5 1 8 -11 11 -11 16 0 3 8 4 4 2 -9 -2 -12 0
-20 5 -16 5 3 14 -8 21 -23 16 -35 76 -101 100 -109 10 -3 16 -8 14 -12 -2 -4
7 -8 21 -9 14 0 28 -5 32 -10 6 -8 18 -10 86 -14 127 -6 230 61 269 175 19 55
21 147 4 164 -17 17 -249 17 -266 0 -18 -18 -15 -103 3 -118 9 -7 30 -13 48
-13 18 1 26 -1 19 -4 -6 -3 -9 -10 -5 -16 3 -7 3 -9 -1 -5 -5 4 -20 2 -34 -3
-18 -7 -39 -7 -67 1 -95 27 -113 161 -29 217 34 22 102 21 138 -2 34 -23 56
-27 56 -12 0 5 3 7 6 4 4 -4 19 2 34 13 16 11 34 20 41 20 7 0 10 3 6 6 -3 4
0 13 8 21 21 20 19 25 -17 62 -36 37 -101 73 -138 77 -14 2 -35 6 -47 9 -26 6
-117 -12 -154 -31 -70 -36 -129 -110 -154 -194 -4 -14 -13 -32 -20 -40 -7 -8
-15 -45 -18 -82 -8 -108 -61 -179 -159 -214 -91 -32 -196 -9 -273 58 -58 52
-84 103 -91 181 -23 249 293 397 461 217 19 -20 25 -34 18 -37 -6 -2 -30 -17
-52 -33 l-40 -30 -37 25 c-68 46 -160 25 -204 -47 -40 -66 -17 -155 52 -199
49 -30 128 -22 168 16 17 16 30 32 30 37 0 4 -26 8 -58 8 l-57 0 0 50 0 50
128 0 c78 0 127 4 127 10 0 10 -32 12 -175 11 -93 -1 -105 -10 -98 -74 7 -65
9 -67 54 -67 34 0 39 -2 30 -14 -15 -18 -69 -28 -110 -20 -47 10 -94 76 -88
124 8 67 42 103 109 114 27 4 48 -1 82 -19 54 -28 60 -27 139 39 28 23 28 24
13 53 -8 17 -12 34 -8 37 3 4 -1 4 -11 0 -10 -3 -17 -1 -17 5 0 6 -6 11 -14
11 -7 0 -19 7 -26 15 -7 8 -21 15 -31 15 -11 0 -19 4 -19 8 0 4 -8 8 -17 8
-10 1 -34 4 -53 7 -20 4 -56 0 -85 -9z m728 -30 c25 -9 65 -32 88 -53 l42 -37
-54 -35 -54 -36 -26 20 c-37 27 -108 33 -147 13 -99 -51 -116 -159 -37 -236
28 -27 44 -34 87 -37 58 -4 107 17 128 56 10 20 8 21 -50 21 l-60 0 0 50 0 50
126 0 127 0 -5 -68 c-7 -101 -50 -171 -133 -215 -31 -17 -58 -22 -120 -22 -70
0 -87 4 -133 29 -93 52 -142 137 -142 245 1 31 7 72 14 92 48 136 208 211 349
163z"/>
<path d="M1388 1340 c-27 -25 -32 -65 -12 -99 10 -17 23 -32 29 -32 64 -8 94
7 109 58 20 66 -75 122 -126 73z m86 -13 c21 -16 24 -60 6 -82 -21 -25 -72
-15 -89 16 -29 53 34 102 83 66z"/>
</g>
</svg>
